<svg width="11" height="10" viewBox="0 0 11 10" fill="none" xmlns="http://www.w3.org/2000/svg">
<path d="M10.3245 5.42448L6.7245 9.02448C6.61178 9.1372 6.45891 9.20053 6.2995 9.20053C6.14009 9.20053 5.98722 9.1372 5.8745 9.02448C5.76178 8.91177 5.69846 8.75889 5.69846 8.59948C5.69846 8.44008 5.76178 8.2872 5.8745 8.17448L8.45 5.59998H1.1C0.94087 5.59998 0.788258 5.53677 0.675736 5.42425C0.563214 5.31173 0.5 5.15911 0.5 4.99998C0.5 4.84085 0.563214 4.68824 0.675736 4.57572C0.788258 4.4632 0.94087 4.39998 1.1 4.39998H8.45L5.8755 1.82398C5.76278 1.71127 5.69946 1.55839 5.69946 1.39898C5.69946 1.23958 5.76278 1.0867 5.8755 0.973984C5.98822 0.861267 6.14109 0.797943 6.3005 0.797943C6.45991 0.797943 6.61278 0.861267 6.7255 0.973984L10.3255 4.57398C10.3814 4.6298 10.4258 4.69612 10.4561 4.76913C10.4863 4.84215 10.5018 4.92041 10.5017 4.99944C10.5016 5.07847 10.4859 5.1567 10.4555 5.22964C10.4251 5.30258 10.3806 5.3688 10.3245 5.42448Z" fill="white"/>
</svg>
